<?xml version="1.0" encoding="UTF-8"?>
<svg xmlns="http://www.w3.org/2000/svg" xmlns:xlink="http://www.w3.org/1999/xlink" width="37.5pt" height="37.499999pt" viewBox="0 0 37.5 37.499999" version="1.2">
<defs>
<clipPath id="clip1">
  <path d="M 0 0 L 37.007812 0 L 37.007812 37.007812 L 0 37.007812 Z M 0 0 "/>
</clipPath>
<clipPath id="clip2">
  <path d="M 0.015625 0.890625 L 37.007812 0.890625 L 37.007812 36.890625 L 0.015625 36.890625 Z M 0.015625 0.890625 "/>
</clipPath>
</defs>
<g id="surface1">
<g clip-path="url(#clip1)" clip-rule="nonzero">
<path style=" stroke:none;fill-rule:nonzero;fill:rgb(100%,100%,100%);fill-opacity:1;" d="M 0 0 L 37.5 0 L 37.5 45 L 0 45 Z M 0 0 "/>
<path style=" stroke:none;fill-rule:nonzero;fill:rgb(100%,100%,100%);fill-opacity:1;" d="M 0 0 L 37.5 0 L 37.5 37.5 L 0 37.5 Z M 0 0 "/>
<path style=" stroke:none;fill-rule:nonzero;fill:rgb(100%,100%,100%);fill-opacity:1;" d="M 0 0 L 37.5 0 L 37.5 37.5 L 0 37.5 Z M 0 0 "/>
</g>
<path style=" stroke:none;fill-rule:nonzero;fill:rgb(30.979919%,54.899597%,81.959534%);fill-opacity:1;" d="M 15.378906 21.21875 C 14.894531 21.21875 14.519531 20.816406 14.519531 20.328125 C 14.519531 19.839844 14.894531 19.441406 15.378906 19.441406 C 15.859375 19.441406 16.253906 19.839844 16.253906 20.328125 C 16.253906 20.816406 15.859375 21.21875 15.378906 21.21875 Z M 18.769531 19.441406 C 19.25 19.441406 19.625 19.839844 19.625 20.328125 C 19.625 20.816406 19.25 21.21875 18.769531 21.21875 C 18.285156 21.21875 17.894531 20.816406 17.894531 20.328125 C 17.894531 19.839844 18.285156 19.441406 18.769531 19.441406 Z M 22.140625 19.441406 C 22.621094 19.441406 23.015625 19.839844 23.015625 20.328125 C 23.015625 20.816406 22.621094 21.21875 22.140625 21.21875 C 21.65625 21.21875 21.285156 20.816406 21.285156 20.328125 C 21.285156 19.839844 21.65625 19.441406 22.140625 19.441406 Z M 18.769531 26.65625 C 24.171875 26.65625 28.542969 23.101562 28.542969 18.714844 C 28.542969 14.328125 24.171875 10.773438 18.769531 10.773438 C 13.363281 10.773438 8.972656 14.328125 8.972656 18.714844 C 8.972656 21.054688 10.222656 23.15625 12.203125 24.609375 L 12.664062 30.15625 L 17.234375 26.566406 C 17.734375 26.621094 18.234375 26.65625 18.769531 26.65625 "/>
<g clip-path="url(#clip2)" clip-rule="nonzero">
<path style=" stroke:none;fill-rule:nonzero;fill:rgb(30.979919%,54.899597%,81.959534%);fill-opacity:1;" d="M 36.839844 17.011719 L 35.574219 17.011719 L 35.574219 16.957031 C 35.574219 16.410156 35.144531 15.976562 34.628906 15.976562 L 32.363281 15.976562 L 32.363281 14.707031 C 32.363281 10.917969 30.828125 7.453125 28.367188 4.953125 C 25.90625 2.449219 22.496094 0.890625 18.769531 0.890625 C 15.019531 0.890625 11.613281 2.449219 9.152344 4.953125 C 6.6875 7.453125 5.15625 10.917969 5.15625 14.707031 L 5.15625 15.976562 L 2.871094 15.976562 C 2.351562 15.976562 1.925781 16.410156 1.925781 16.957031 L 1.925781 17.011719 L 0.640625 17.011719 C 0.300781 17.011719 0.015625 17.300781 0.015625 17.664062 L 0.015625 24.226562 C 0.015625 24.589844 0.300781 24.878906 0.640625 24.878906 L 1.925781 24.878906 L 1.925781 24.933594 C 1.925781 25.476562 2.351562 25.914062 2.871094 25.914062 L 6.261719 25.914062 C 6.777344 25.914062 7.222656 25.476562 7.222656 24.933594 L 7.222656 16.957031 C 7.222656 16.410156 6.777344 15.976562 6.261719 15.976562 L 6.101562 15.976562 L 6.101562 14.707031 C 6.101562 11.28125 7.457031 8.144531 9.632812 5.839844 C 9.6875 5.769531 9.757812 5.695312 9.828125 5.621094 C 12.113281 3.300781 15.289062 1.851562 18.765625 1.851562 C 22.246094 1.851562 25.40625 3.300781 27.707031 5.621094 C 27.761719 5.695312 27.8125 5.75 27.867188 5.804688 C 30.0625 8.125 31.417969 11.261719 31.417969 14.707031 L 31.417969 15.976562 L 31.238281 15.976562 C 30.703125 15.976562 30.277344 16.410156 30.277344 16.957031 L 30.277344 24.933594 C 30.277344 25.40625 30.597656 25.785156 31.023438 25.894531 C 30.453125 28.160156 29.277344 30.191406 27.707031 31.789062 C 25.441406 34.089844 22.335938 35.542969 18.910156 35.578125 C 18.785156 35.179688 18.410156 34.871094 17.984375 34.871094 L 14.664062 34.871094 C 14.128906 34.871094 13.699219 35.304688 13.699219 35.851562 L 13.699219 36.210938 C 13.699219 36.738281 14.128906 37.171875 14.664062 37.171875 L 17.984375 37.171875 C 18.394531 37.171875 18.75 36.917969 18.894531 36.539062 C 22.585938 36.503906 25.941406 34.960938 28.367188 32.476562 C 30.113281 30.699219 31.398438 28.433594 31.988281 25.914062 L 34.628906 25.914062 C 35.144531 25.914062 35.574219 25.476562 35.574219 24.933594 L 35.574219 24.878906 L 36.839844 24.878906 C 37.199219 24.878906 37.484375 24.589844 37.484375 24.226562 L 37.484375 17.664062 C 37.484375 17.300781 37.199219 17.011719 36.839844 17.011719 "/>
</g>
</g>
</svg>
