<?xml version="1.0" encoding="UTF-8"?>
<svg xmlns="http://www.w3.org/2000/svg" xmlns:xlink="http://www.w3.org/1999/xlink" width="37.5pt" height="37.499999pt" viewBox="0 0 37.5 37.499999" version="1.2">
<defs>
<clipPath id="clip1">
  <path d="M 0 7.5 L 23 7.5 L 23 24 L 0 24 Z M 0 7.5 "/>
</clipPath>
<clipPath id="clip2">
  <path d="M 15 11 L 37.007812 11 L 37.007812 28 L 15 28 Z M 15 11 "/>
</clipPath>
</defs>
<g id="surface1">
<g clip-path="url(#clip1)" clip-rule="nonzero">
<path style=" stroke:none;fill-rule:nonzero;fill:rgb(38.038635%,74.119568%,70.588684%);fill-opacity:1;" d="M 0.046875 15.5 C 0.046875 19.925781 4.980469 23.507812 11.066406 23.507812 C 17.15625 23.507812 22.089844 19.925781 22.089844 15.5 C 22.089844 11.078125 17.15625 7.496094 11.066406 7.496094 C 4.980469 7.496094 0.046875 11.078125 0.046875 15.5 "/>
</g>
<path style=" stroke:none;fill-rule:nonzero;fill:rgb(100%,100%,100%);fill-opacity:1;" d="M 13.132812 16.863281 C 13.132812 17.515625 13.660156 18.042969 14.3125 18.042969 C 14.964844 18.042969 15.492188 17.515625 15.492188 16.863281 C 15.492188 16.214844 14.964844 15.6875 14.3125 15.6875 C 13.660156 15.6875 13.132812 16.214844 13.132812 16.863281 "/>
<path style=" stroke:none;fill-rule:nonzero;fill:rgb(100%,100%,100%);fill-opacity:1;" d="M 8.847656 16.863281 C 8.847656 17.515625 9.375 18.042969 10.027344 18.042969 C 10.675781 18.042969 11.207031 17.515625 11.207031 16.863281 C 11.207031 16.214844 10.675781 15.6875 10.027344 15.6875 C 9.375 15.6875 8.847656 16.214844 8.847656 16.863281 "/>
<path style=" stroke:none;fill-rule:nonzero;fill:rgb(100%,100%,100%);fill-opacity:1;" d="M 4.5625 16.863281 C 4.5625 17.515625 5.089844 18.042969 5.742188 18.042969 C 6.394531 18.042969 6.917969 17.515625 6.917969 16.863281 C 6.917969 16.214844 6.394531 15.6875 5.742188 15.6875 C 5.089844 15.6875 4.5625 16.214844 4.5625 16.863281 "/>
<path style=" stroke:none;fill-rule:nonzero;fill:rgb(38.038635%,74.119568%,70.588684%);fill-opacity:1;" d="M 10.734375 22.765625 L 4.234375 25.945312 L 4.734375 21.070312 Z M 10.734375 22.765625 "/>
<g clip-path="url(#clip2)" clip-rule="nonzero">
<path style=" stroke:none;fill-rule:nonzero;fill:rgb(9.799194%,27.449036%,29.798889%);fill-opacity:1;" d="M 37.441406 19.546875 C 37.441406 23.96875 32.507812 27.554688 26.417969 27.554688 C 20.332031 27.554688 15.398438 23.96875 15.398438 19.546875 C 15.398438 15.125 20.332031 11.539062 26.417969 11.539062 C 32.507812 11.539062 37.441406 15.125 37.441406 19.546875 "/>
</g>
<path style=" stroke:none;fill-rule:nonzero;fill:rgb(100%,100%,100%);fill-opacity:1;" d="M 24.355469 20.910156 C 24.355469 21.5625 23.828125 22.089844 23.175781 22.089844 C 22.523438 22.089844 21.996094 21.5625 21.996094 20.910156 C 21.996094 20.257812 22.523438 19.730469 23.175781 19.730469 C 23.828125 19.730469 24.355469 20.257812 24.355469 20.910156 "/>
<path style=" stroke:none;fill-rule:nonzero;fill:rgb(100%,100%,100%);fill-opacity:1;" d="M 28.640625 20.910156 C 28.640625 21.5625 28.113281 22.089844 27.460938 22.089844 C 26.808594 22.089844 26.28125 21.5625 26.28125 20.910156 C 26.28125 20.257812 26.808594 19.730469 27.460938 19.730469 C 28.113281 19.730469 28.640625 20.257812 28.640625 20.910156 "/>
<path style=" stroke:none;fill-rule:nonzero;fill:rgb(100%,100%,100%);fill-opacity:1;" d="M 32.921875 20.910156 C 32.921875 21.5625 32.398438 22.089844 31.746094 22.089844 C 31.09375 22.089844 30.566406 21.5625 30.566406 20.910156 C 30.566406 20.257812 31.09375 19.730469 31.746094 19.730469 C 32.398438 19.730469 32.921875 20.257812 32.921875 20.910156 "/>
<path style=" stroke:none;fill-rule:nonzero;fill:rgb(9.799194%,27.449036%,29.798889%);fill-opacity:1;" d="M 26.75 26.8125 L 33.25 29.992188 L 32.753906 25.117188 Z M 26.75 26.8125 "/>
</g>
</svg>
