<?xml version="1.0" encoding="UTF-8"?>
<svg xmlns="http://www.w3.org/2000/svg" xmlns:xlink="http://www.w3.org/1999/xlink" width="37.5pt" height="37.499999pt" viewBox="0 0 37.5 37.499999" version="1.2">
<defs>
<clipPath id="clip1">
  <path d="M 6.304688 0.9375 L 30.914062 0.9375 L 30.914062 36.9375 L 6.304688 36.9375 Z M 6.304688 0.9375 "/>
</clipPath>
</defs>
<g id="surface1">
<g clip-path="url(#clip1)" clip-rule="nonzero">
<path style=" stroke:none;fill-rule:nonzero;fill:rgb(0%,44.309998%,73.728943%);fill-opacity:1;" d="M 30.910156 24.613281 C 30.910156 31.628906 25.402344 37.316406 18.609375 37.316406 C 11.816406 37.316406 6.308594 31.628906 6.308594 24.613281 C 6.308594 14.699219 18.609375 0.9375 18.609375 0.9375 C 18.609375 0.9375 30.910156 14.605469 30.910156 24.613281 "/>
</g>
<path style=" stroke:none;fill-rule:nonzero;fill:rgb(100%,100%,100%);fill-opacity:1;" d="M 29.046875 24.613281 C 29.238281 26.023438 29.066406 27.507812 28.585938 28.882812 C 28.109375 30.257812 27.324219 31.527344 26.3125 32.570312 C 25.304688 33.613281 24.074219 34.425781 22.742188 34.917969 C 21.410156 35.414062 19.976562 35.59375 18.609375 35.390625 C 19.972656 35.191406 21.269531 34.8125 22.460938 34.21875 C 23.652344 33.632812 24.730469 32.84375 25.65625 31.890625 C 26.578125 30.9375 27.34375 29.820312 27.914062 28.589844 C 28.484375 27.363281 28.851562 26.023438 29.046875 24.613281 "/>
<path style=" stroke:none;fill-rule:nonzero;fill:rgb(100%,100%,100%);fill-opacity:1;" d="M 11.9375 32.472656 C 11.472656 32.160156 11.039062 31.796875 10.636719 31.390625 C 10.234375 30.984375 9.875 30.53125 9.542969 30.050781 C 9.214844 29.566406 8.9375 29.046875 8.695312 28.503906 C 8.636719 28.367188 8.570312 28.234375 8.519531 28.09375 L 8.367188 27.675781 C 8.316406 27.535156 8.277344 27.390625 8.230469 27.246094 L 8.167969 27.03125 L 8.113281 26.8125 C 8.082031 26.664062 8.042969 26.519531 8.015625 26.371094 L 7.933594 25.925781 C 7.902344 25.777344 7.890625 25.628906 7.871094 25.476562 L 7.84375 25.25 C 7.839844 25.175781 7.835938 25.101562 7.828125 25.023438 C 7.820312 24.875 7.804688 24.722656 7.800781 24.570312 C 7.796875 24.417969 7.800781 24.265625 7.800781 24.113281 L 7.800781 23.886719 C 7.800781 23.808594 7.808594 23.734375 7.8125 23.660156 L 7.84375 23.207031 C 7.851562 23.054688 7.871094 22.90625 7.890625 22.757812 L 7.949219 22.3125 C 8 22.019531 8.058594 21.730469 8.109375 21.4375 C 8.175781 21.148438 8.25 20.863281 8.320312 20.578125 C 8.398438 20.296875 8.484375 20.015625 8.566406 19.734375 C 8.65625 19.457031 8.757812 19.183594 8.851562 18.910156 C 8.898438 18.769531 8.949219 18.636719 9.003906 18.503906 L 9.164062 18.097656 C 9.269531 17.828125 9.386719 17.566406 9.503906 17.304688 L 9.679688 16.910156 C 9.738281 16.78125 9.804688 16.652344 9.867188 16.523438 C 10.367188 15.492188 10.929688 14.5 11.539062 13.546875 C 12.144531 12.589844 12.804688 11.671875 13.496094 10.789062 C 13.851562 10.351562 14.203125 9.914062 14.582031 9.5 C 14.957031 9.082031 15.335938 8.671875 15.734375 8.273438 C 15.277344 9.320312 14.75 10.304688 14.265625 11.308594 C 13.773438 12.308594 13.277344 13.296875 12.8125 14.296875 L 12.632812 14.667969 C 12.574219 14.792969 12.519531 14.917969 12.464844 15.042969 C 12.351562 15.292969 12.230469 15.542969 12.117188 15.792969 C 12.007812 16.042969 11.902344 16.292969 11.789062 16.542969 C 11.675781 16.792969 11.574219 17.046875 11.46875 17.296875 L 11.3125 17.671875 L 11.160156 18.050781 C 11.0625 18.304688 10.957031 18.554688 10.871094 18.808594 C 10.777344 19.0625 10.671875 19.3125 10.589844 19.570312 C 10.507812 19.824219 10.417969 20.078125 10.335938 20.335938 C 10.257812 20.589844 10.175781 20.847656 10.101562 21.101562 L 9.898438 21.875 C 9.84375 22.132812 9.777344 22.386719 9.726562 22.648438 L 9.660156 23.035156 C 9.636719 23.164062 9.605469 23.292969 9.59375 23.421875 L 9.542969 23.808594 C 9.535156 23.871094 9.523438 23.9375 9.519531 24 L 9.507812 24.191406 C 9.496094 24.320312 9.488281 24.449219 9.476562 24.578125 C 9.46875 24.707031 9.46875 24.835938 9.464844 24.964844 C 9.460938 25.484375 9.480469 26.007812 9.546875 26.523438 L 9.570312 26.71875 L 9.601562 26.914062 C 9.625 27.042969 9.636719 27.175781 9.664062 27.300781 L 9.746094 27.6875 C 9.773438 27.816406 9.808594 27.945312 9.839844 28.074219 C 9.855469 28.136719 9.871094 28.203125 9.886719 28.265625 L 9.945312 28.457031 C 9.984375 28.585938 10.019531 28.714844 10.0625 28.839844 L 10.191406 29.21875 L 10.339844 29.59375 C 10.542969 30.089844 10.777344 30.582031 11.042969 31.0625 C 11.3125 31.539062 11.613281 32.007812 11.9375 32.472656 "/>
</g>
</svg>
