<?xml version="1.0" encoding="UTF-8"?>
<svg xmlns="http://www.w3.org/2000/svg" xmlns:xlink="http://www.w3.org/1999/xlink" width="37.5pt" height="37.499999pt" viewBox="0 0 37.5 37.499999" version="1.2">
<defs>
<clipPath id="clip1">
  <path d="M 0 0 L 37.007812 0 L 37.007812 37.007812 L 0 37.007812 Z M 0 0 "/>
</clipPath>
<clipPath id="clip2">
  <path d="M 0 0 L 36.75 0 L 36.75 37.007812 L 0 37.007812 Z M 0 0 "/>
</clipPath>
</defs>
<g id="surface1">
<g clip-path="url(#clip1)" clip-rule="nonzero">
<path style=" stroke:none;fill-rule:nonzero;fill:rgb(100%,100%,100%);fill-opacity:1;" d="M 0 0 L 37.5 0 L 37.5 45 L 0 45 Z M 0 0 "/>
<path style=" stroke:none;fill-rule:nonzero;fill:rgb(100%,100%,100%);fill-opacity:1;" d="M 0 0 L 37.5 0 L 37.5 37.5 L 0 37.5 Z M 0 0 "/>
<path style=" stroke:none;fill-rule:nonzero;fill:rgb(100%,100%,100%);fill-opacity:1;" d="M 0 0 L 37.5 0 L 37.5 37.5 L 0 37.5 Z M 0 0 "/>
</g>
<g clip-path="url(#clip2)" clip-rule="nonzero">
<path style=" stroke:none;fill-rule:nonzero;fill:rgb(23.139954%,53.329468%,76.469421%);fill-opacity:1;" d="M 8.988281 0 C 4.035156 0 0.0078125 2.925781 0.0078125 6.523438 L 0.0078125 30.976562 C 0.0078125 32.871094 1.101562 34.546875 2.738281 35.691406 C 4.375 36.835938 6.582031 37.5 8.988281 37.5 L 36.742188 37.5 L 36.742188 5.707031 L 17.890625 5.707031 C 17.335938 2.492188 13.558594 0 8.988281 0 Z M 17.96875 7.335938 L 35.109375 7.335938 L 35.109375 35.871094 L 8.988281 35.871094 C 6.886719 35.871094 5 35.261719 3.683594 34.339844 C 2.367188 33.421875 1.640625 32.238281 1.640625 30.976562 C 1.640625 29.71875 2.367188 28.535156 3.683594 27.617188 C 4.644531 26.941406 5.921875 26.4375 7.355469 26.214844 L 7.355469 32.992188 L 7.660156 33.246094 C 7.660156 33.246094 9.824219 35.054688 12.660156 35.054688 C 14.0625 35.054688 15.335938 34.640625 16.308594 33.933594 C 17.28125 33.226562 17.96875 32.183594 17.96875 30.976562 Z M 8.988281 26.085938 C 11.089844 26.085938 12.976562 26.695312 14.292969 27.617188 C 15.609375 28.535156 16.335938 29.71875 16.335938 30.976562 C 16.335938 31.578125 16.019531 32.160156 15.363281 32.632812 C 14.710938 33.109375 13.742188 33.425781 12.660156 33.425781 C 10.804688 33.425781 9.375 32.425781 8.988281 32.148438 Z M 8.988281 26.085938 "/>
</g>
</g>
</svg>
