<?xml version="1.0" encoding="UTF-8"?>
<svg xmlns="http://www.w3.org/2000/svg" xmlns:xlink="http://www.w3.org/1999/xlink" width="37.5pt" height="37.499999pt" viewBox="0 0 37.5 37.499999" version="1.2">
<defs>
<clipPath id="clip1">
  <path d="M 0 0 L 37.007812 0 L 37.007812 37.007812 L 0 37.007812 Z M 0 0 "/>
</clipPath>
</defs>
<g id="surface1">
<g clip-path="url(#clip1)" clip-rule="nonzero">
<path style=" stroke:none;fill-rule:nonzero;fill:rgb(23.139954%,53.329468%,76.469421%);fill-opacity:1;" d="M 18.75 0 C 8.394531 0 0 8.394531 0 18.75 C 0 29.105469 8.394531 37.5 18.75 37.5 C 29.105469 37.5 37.5 29.105469 37.5 18.75 C 37.5 8.394531 29.105469 0 18.75 0 Z M 2.136719 19.792969 L 6.285156 19.792969 C 6.378906 22.402344 6.828125 24.867188 7.566406 27.082031 L 4.332031 27.082031 C 3.074219 24.914062 2.300781 22.4375 2.136719 19.792969 Z M 19.792969 8.332031 L 19.792969 2.167969 C 22.652344 2.621094 25.167969 4.933594 26.875 8.332031 Z M 27.761719 10.417969 C 28.546875 12.585938 29.03125 15.0625 29.132812 17.707031 L 19.792969 17.707031 L 19.792969 10.417969 Z M 17.707031 2.167969 L 17.707031 8.332031 L 10.625 8.332031 C 12.332031 4.933594 14.847656 2.621094 17.707031 2.167969 Z M 17.707031 10.417969 L 17.707031 17.707031 L 8.367188 17.707031 C 8.46875 15.0625 8.953125 12.585938 9.738281 10.417969 Z M 6.285156 17.707031 L 2.136719 17.707031 C 2.300781 15.0625 3.074219 12.585938 4.332031 10.417969 L 7.5625 10.417969 C 6.828125 12.632812 6.382812 15.097656 6.285156 17.707031 Z M 8.367188 19.792969 L 17.707031 19.792969 L 17.707031 27.082031 L 9.738281 27.082031 C 8.953125 24.914062 8.46875 22.4375 8.367188 19.792969 Z M 17.707031 29.167969 L 17.707031 35.332031 C 14.847656 34.878906 12.332031 32.566406 10.625 29.167969 Z M 19.792969 35.332031 L 19.792969 29.167969 L 26.875 29.167969 C 25.167969 32.566406 22.652344 34.878906 19.792969 35.332031 Z M 19.792969 27.082031 L 19.792969 19.792969 L 29.132812 19.792969 C 29.03125 22.4375 28.546875 24.914062 27.761719 27.082031 Z M 31.214844 19.792969 L 35.363281 19.792969 C 35.199219 22.4375 34.425781 24.914062 33.167969 27.082031 L 29.933594 27.082031 C 30.671875 24.867188 31.117188 22.402344 31.214844 19.792969 Z M 31.214844 17.707031 C 31.117188 15.097656 30.671875 12.632812 29.933594 10.417969 L 33.167969 10.417969 C 34.425781 12.585938 35.199219 15.0625 35.363281 17.707031 Z M 31.75 8.332031 L 29.140625 8.332031 C 28.394531 6.664062 27.46875 5.191406 26.414062 3.960938 C 28.484375 5.035156 30.300781 6.527344 31.75 8.332031 Z M 11.085938 3.960938 C 10.03125 5.191406 9.105469 6.664062 8.355469 8.332031 L 5.75 8.332031 C 7.199219 6.527344 9.015625 5.035156 11.085938 3.960938 Z M 5.75 29.167969 L 8.359375 29.167969 C 9.105469 30.835938 10.03125 32.308594 11.085938 33.539062 C 9.015625 32.464844 7.199219 30.972656 5.75 29.167969 Z M 26.414062 33.539062 C 27.46875 32.304688 28.394531 30.835938 29.140625 29.167969 L 31.75 29.167969 C 30.300781 30.972656 28.484375 32.464844 26.414062 33.539062 Z M 26.414062 33.539062 "/>
</g>
</g>
</svg>
